<svg width="24" height="24" viewBox="0 0 24 24" fill="none" xmlns="http://www.w3.org/2000/svg">
<path fill-rule="evenodd" clip-rule="evenodd" d="M12.0001 1C9.37672 1 7.25007 3.12665 7.25007 5.75V6.18575C6.86943 6.26088 6.51758 6.36816 6.17969 6.52306C5.17425 6.98397 4.32308 7.72509 3.72823 8.65756C3.36819 9.22195 3.15456 9.8533 2.98673 10.6235C2.8223 11.378 2.69165 12.3188 2.52543 13.5156L2.51622 13.5819C2.30232 15.122 2.1351 16.3259 2.08431 17.2957C2.03274 18.2803 2.09512 19.1008 2.39132 19.8541C2.87545 21.0853 3.76933 22.112 4.92225 22.7609C5.62764 23.1579 6.43177 23.3325 7.41413 23.4169C8.38165 23.5 9.59715 23.5 11.152 23.5H12.8481C14.403 23.5 15.6185 23.5 16.586 23.4169C17.5684 23.3325 18.3725 23.1579 19.0779 22.7609C20.2308 22.112 21.1247 21.0853 21.6088 19.8541C21.905 19.1008 21.9674 18.2803 21.9158 17.2957C21.865 16.3259 21.6978 15.1219 21.4839 13.5818L21.4747 13.5156C21.3085 12.3188 21.1778 11.378 21.0134 10.6235C20.8456 9.8533 20.632 9.22195 20.2719 8.65756C19.6771 7.72509 18.8259 6.98397 17.8205 6.52306C17.4826 6.36816 17.1307 6.26088 16.7501 6.18575V5.75C16.7501 3.12665 14.6234 1 12.0001 1ZM8.00007 11.5C7.58586 11.5 7.25007 11.1642 7.25007 10.75V7.72563C7.08719 7.77076 6.94118 7.82407 6.80477 7.88661C6.06162 8.22728 5.4325 8.77507 4.99283 9.46428C4.76587 9.82006 4.60109 10.2602 4.45234 10.9428C4.30158 11.6347 4.17831 12.5185 4.00691 13.7526C3.787 15.3359 3.62928 16.4762 3.58226 17.3741C3.53562 18.2646 3.60396 18.839 3.78729 19.3052C4.14512 20.2153 4.80581 20.9741 5.65797 21.4537C6.09455 21.6994 6.65406 21.8461 7.54249 21.9224C8.43831 21.9994 9.58948 22 11.188 22H12.8122C14.4107 22 15.5618 21.9994 16.4577 21.9224C17.3461 21.8461 17.9056 21.6994 18.3422 21.4537C19.1943 20.9741 19.855 20.2153 20.2129 19.3052C20.3962 18.839 20.4645 18.2646 20.4179 17.3741C20.3709 16.4762 20.2131 15.3359 19.9932 13.7526C19.8218 12.5185 19.6986 11.6347 19.5478 10.9428C19.3991 10.2602 19.2343 9.82006 19.0073 9.46428C18.5676 8.77507 17.9385 8.22729 17.1954 7.88661C17.059 7.82407 16.9129 7.77076 16.7501 7.72563V10.75C16.7501 11.1642 16.4143 11.5 16.0001 11.5C15.5859 11.5 15.2501 11.1642 15.2501 10.75V7.52999C14.6162 7.50051 13.8339 7.5 12.8122 7.5H11.188C10.1662 7.5 9.38392 7.50051 8.75007 7.52999V10.75C8.75007 11.1642 8.41429 11.5 8.00007 11.5ZM12.8575 6C13.7973 5.99999 14.5822 5.99999 15.2501 6.02865V5.75C15.2501 3.95507 13.795 2.5 12.0001 2.5C10.2051 2.5 8.75007 3.95507 8.75007 5.75V6.02865C9.41795 5.99999 10.2028 5.99999 11.1427 6H12.8575Z" fill="#FAFAFA"/>
</svg>
